# xmcd
#
# Track frame offsets:
#	150
#	22593
#	43015
#	62314
#	86303
#	103559
#	118121
#	156807
#	186008
#	206744
#	231415
#	259109
#	289032
#	317946
#	341801
#
# Disc length: 4788 seconds
#
# Revision: 1
# Processed by: cddbd v1.4PL0 Copyright (c) Steve Scherf et al.
# Submitted via: EasyCDDAExtractor 5.0.6
#
DISCID=cb12b20f
DTITLE=Fluonders Without Eyes - What Will It Bring
DYEAR=1900
DGENRE=
TTITLE0=Get What You Pay For
TTITLE1=Helpless
TTITLE2=What Will It bring
TTITLE3=Arson
TTITLE4=Waiting For My Time
TTITLE5=Baby Tonight
TTITLE6=Flounders Floating
TTITLE7=Honey Hush
TTITLE8=Not Even If You Try
TTITLE9=Sink Or Swim
TTITLE10=Raining
TTITLE11=Then She Came Running
TTITLE12=Love's Evil
TTITLE13=High
TTITLE14=Hot Ass Sun
EXTD=
EXTT0=
EXTT1=
EXTT2=
EXTT3=
EXTT4=
EXTT5=
EXTT6=
EXTT7=
EXTT8=
EXTT9=
EXTT10=
EXTT11=
EXTT12=
EXTT13=
EXTT14=
PLAYORDER=
